<?xml version="1.0" encoding="iso-8859-1"?>
<!-- Uploaded to: SVG Repo, www.svgrepo.com, Generator: SVG Repo Mixer Tools -->
<svg fill="#FF6685" height="800px" width="800px" version="1.1" id="Layer_1" xmlns="http://www.w3.org/2000/svg" xmlns:xlink="http://www.w3.org/1999/xlink" 
	 viewBox="0 0 512 512" xml:space="preserve">
<g>
	<g>
		<path d="M495.338,100.484c9.202,0,16.662-7.46,16.662-16.662V17.178c0.004-9.143-7.439-16.668-16.662-16.668h-66.649
			c-9.202,0-16.662,7.46-16.662,16.662s7.46,16.662,16.662,16.662h26.423L340.489,148.458c-6.339-21.511-18.57-41.937-36.005-59.559
			c-28.488-28.792-66.158-45.304-103.35-45.304c-20.738,0-49.678,3.659-77.664,7.197c-26.963,3.409-54.844,6.934-73.482,6.934
			c-4.451,0-8.634-1.733-11.781-4.881c-3.147-3.147-4.881-7.33-4.881-11.781s1.734-8.634,4.881-11.781
			c6.506-6.506,6.507-17.057,0.001-23.564c-3.255-3.255-7.519-4.881-11.782-4.881c-4.263,0-8.529,1.626-11.781,4.88
			C5.2,15.158,0,27.711,0,41.063s5.2,25.906,14.641,35.345c0.003,0.003,0.008,0.007,0.011,0.011l198.938,198.938l-69.509,69.509
			H84.333c-4.42,0-8.658,1.756-11.781,4.881L5.902,416.396c-4.765,4.765-6.191,11.932-3.612,18.159
			c2.579,6.226,8.654,10.286,15.394,10.286H67.67v49.987c0,6.739,4.059,12.816,10.286,15.394c6.224,2.577,13.393,1.153,18.159-3.612
			l66.649-66.649c3.125-3.125,4.881-7.363,4.881-11.781v-59.748l69.509-69.509l197.824,197.824c0.003,0.003,0.007,0.008,0.011,0.011
			c9.441,9.442,21.994,14.642,35.346,14.642s25.904-5.2,35.346-14.641c6.506-6.506,6.507-17.057,0.001-23.564
			c-6.507-6.508-17.057-6.508-23.565-0.001c-3.148,3.147-7.333,4.881-11.783,4.881s-8.634-1.733-11.783-4.882
			c-3.146-3.146-4.88-7.329-4.879-11.781c0-18.651,3.808-49.08,7.491-78.505c3.985-31.837,7.749-61.91,7.749-82.636
			c0-34.148-14.018-66.828-39.47-92.02c-18.095-17.909-40.648-30.574-64.791-36.829L478.675,57.398v26.424
			C478.675,93.024,486.136,100.484,495.338,100.484z M134.32,421.275L100.995,454.6v-26.422c0-9.202-7.46-16.662-16.662-16.662
			H57.909l33.325-33.325h43.086V421.275z M237.152,251.793L75.158,89.799c16.291-1.373,34.581-3.681,52.491-5.946
			c26.962-3.409,54.844-6.934,73.483-6.934c27.936,0,57.717,13.24,79.662,35.419c18.445,18.642,29.578,41.875,31.175,64.638
			L237.152,251.793z M406.001,231.934c19.081,18.884,29.589,43.153,29.589,68.335c0,18.649-3.809,49.074-7.49,78.498
			c-2.577,20.589-5.055,40.422-6.489,57.484L260.717,275.357l74.907-74.907C361.662,201.865,387.002,213.13,406.001,231.934z"/>
	</g>
</g>
</svg>