<?xml version="1.0" encoding="iso-8859-1"?>
<!-- Uploaded to: SVG Repo, www.svgrepo.com, Generator: SVG Repo Mixer Tools -->
<svg fill="#000000" height="800px" width="800px" version="1.1" id="Layer_1" xmlns="http://www.w3.org/2000/svg" xmlns:xlink="http://www.w3.org/1999/xlink" 
	 viewBox="0 0 512 512" xml:space="preserve">
<g>
	<g>
		<path d="M495.304,361.739h-16.696V100.174c0-27.618-22.469-50.087-50.087-50.087H83.478c-27.618,0-50.087,22.469-50.087,50.087
			v261.565H16.696C7.475,361.739,0,369.214,0,378.435v33.391c0,27.618,22.469,50.087,50.087,50.087h411.826
			c27.618,0,50.087-22.469,50.087-50.087v-33.391C512,369.214,504.525,361.739,495.304,361.739z M66.783,100.174
			c0-9.206,7.49-16.696,16.696-16.696h345.043c9.206,0,16.696,7.49,16.696,16.696v261.565H66.783V100.174z M478.609,411.826
			c0,9.206-7.49,16.696-16.696,16.696H50.087c-9.206,0-16.696-7.49-16.696-16.696V395.13h16.696h411.826h16.696V411.826z"/>
	</g>
</g>
<g>
	<g>
		<path d="M359.737,140.2c-13.007-14.458-31.014-22.42-50.702-22.42c-20.965,0-39.234,9.257-53.034,26.82
			c-13.801-17.563-32.069-26.82-53.034-26.82c-19.689,0-37.695,7.962-50.703,22.42c-12.269,13.638-19.027,31.826-19.027,51.213
			c0,41.805,31.826,67.606,75.876,103.318c10.852,8.797,23.152,18.77,36.023,29.801c3.127,2.68,6.995,4.019,10.866,4.019
			c3.87,0,7.739-1.34,10.866-4.019c12.87-11.03,25.17-21.003,36.023-29.801c44.05-35.711,75.876-61.513,75.876-103.318
			C378.764,172.026,372.007,153.838,359.737,140.2z M281.859,268.792c-7.948,6.443-16.66,13.507-25.859,21.195
			c-9.199-7.688-17.911-14.751-25.859-21.195c-42.894-34.775-63.514-52.59-63.514-77.38c0-19.508,12.735-40.241,36.339-40.241
			c26.86,0,36.527,31.8,36.978,33.337c2.042,7.17,8.583,12.164,16.046,12.164c7.487,0,14.047-4.942,16.066-12.151
			c0.397-1.361,10.042-33.349,36.981-33.349c23.603,0,36.339,20.733,36.339,40.241C345.373,216.202,324.754,234.017,281.859,268.792
			z"/>
	</g>
</g>
</svg>