<?xml version="1.0" encoding="iso-8859-1"?>
<!-- Uploaded to: SVG Repo, www.svgrepo.com, Generator: SVG Repo Mixer Tools -->
<svg fill="#FF6685" height="800px" width="800px" version="1.1" id="Layer_1" xmlns="http://www.w3.org/2000/svg" xmlns:xlink="http://www.w3.org/1999/xlink" 
	 viewBox="0 0 512 512" xml:space="preserve">
<g>
	<g>
		<path d="M292.113,289.814c-15.724,0-27.596,6.69-36.113,15.388c-8.517-8.697-20.389-15.388-36.113-15.388
			c-29.611,0-52.807,24.365-52.807,55.466c0,37.997,33.844,58.158,78.055,96.051c3.127,2.679,6.995,4.019,10.866,4.019
			s7.739-1.34,10.866-4.019c44.166-37.855,78.055-58.045,78.055-96.051C344.921,314.179,321.725,289.814,292.113,289.814z
			 M267.65,397.184c-3.65,3.002-7.562,6.22-11.65,9.623c-4.088-3.405-8.001-6.622-11.65-9.623
			c-29.635-24.37-43.88-36.755-43.88-51.903c0-10.969,6.669-22.075,19.416-22.075c13.975,0,19.604,17.366,20.052,18.818
			c1.944,7.309,8.492,12.402,16.062,12.402s14.118-5.091,16.062-12.402c0.446-1.454,6.076-18.818,20.051-18.818
			c12.747,0,19.416,11.106,19.416,22.075C311.53,360.428,297.285,372.814,267.65,397.184z"/>
	</g>
</g>
<g>
	<g>
		<path d="M333.913,150.562V97.313c19.435-6.89,33.391-25.459,33.391-47.226C367.304,22.469,344.835,0,317.217,0H194.783
			c-27.618,0-50.087,22.469-50.087,50.087c0,21.768,13.956,40.336,33.391,47.226v53.25
			c-65.07,29.458-111.304,95.161-111.304,172.219C66.783,427.117,151.665,512,256,512s189.217-84.883,189.217-189.217
			C445.217,245.711,398.972,180.016,333.913,150.562z M200.732,177.286c6.471-2.469,10.746-8.675,10.746-15.6v-61.511h16.696
			c9.22,0,16.696-7.475,16.696-16.696s-7.475-16.696-16.696-16.696h-33.391c-9.206,0-16.696-7.49-16.696-16.696
			s7.49-16.696,16.696-16.696h122.435c9.206,0,16.696,7.49,16.696,16.696s-7.49,16.696-16.696,16.696h-33.391
			c-9.22,0-16.696,7.475-16.696,16.696s7.475,16.696,16.696,16.696h16.696v61.512c0,6.925,4.275,13.132,10.746,15.6
			c16.273,6.206,31.084,15.032,44.059,25.847c-35.797-5.266-72.694-0.135-106.241,15.412c-0.037,0.017-0.073,0.033-0.111,0.051
			c-36.03,16.696-76.676,18.833-113.89,6.417C152.086,204.013,174.534,187.277,200.732,177.286z M256,478.609
			c-85.922,0-155.826-69.904-155.826-155.826c0-24.348,5.846-47.88,16.378-68.965c21.73,8.353,44.577,12.545,67.42,12.545
			c26.947,0,53.88-5.81,78.944-17.424c0.037-0.017,0.073-0.033,0.112-0.051c41.232-19.107,88.514-19.147,129.78-0.129
			c12.193,22.349,19.017,47.709,19.017,74.024C411.826,408.705,341.923,478.609,256,478.609z"/>
	</g>
</g>
</svg>