<?xml version="1.0" encoding="iso-8859-1"?>
<!-- Uploaded to: SVG Repo, www.svgrepo.com, Generator: SVG Repo Mixer Tools -->
<svg fill="#000000" height="800px" width="800px" version="1.1" id="Layer_1" xmlns="http://www.w3.org/2000/svg" xmlns:xlink="http://www.w3.org/1999/xlink" 
	 viewBox="0 0 512 512" xml:space="preserve">
<g>
	<g>
		<path d="M495.304,247.471h-85.392c-4.054-9.68-9.611-18.584-16.544-26.34c-16.614-18.583-39.635-28.819-64.824-28.819
			c-28.143,0-52.523,13.223-70.505,38.239c-0.703,0.978-1.382,1.957-2.04,2.933c-0.658-0.976-1.337-1.955-2.04-2.933
			c-17.98-25.017-42.361-38.239-70.505-38.239c-25.188,0-48.209,10.234-64.824,28.819c-6.933,7.756-12.491,16.66-16.544,26.34
			H16.696C7.475,247.471,0,254.947,0,264.167c0,27.254,13.126,51.498,33.391,66.744c0,0.013,0,0.026,0,0.039
			c0,46.03,37.448,83.478,83.478,83.478h60.379c9.554,8.257,19.714,16.795,30.362,25.74c11.966,10.052,24.34,20.447,37.484,31.785
			c3.133,2.702,7.02,4.054,10.906,4.054c3.886,0,7.771-1.351,10.906-4.054c13.144-11.339,25.518-21.732,37.484-31.785
			c10.648-8.945,20.807-17.484,30.362-25.74h60.379c46.03,0,83.478-37.448,83.478-83.478c0-0.013,0-0.026,0-0.039
			C498.874,315.665,512,291.421,512,264.167C512,254.947,504.525,247.471,495.304,247.471z M36.252,280.863h58.183
			c-0.13,2.163-0.22,4.334-0.22,6.522c0,9.154,1.199,18.064,3.644,26.869h-14.38C61.71,314.254,43.143,300.297,36.252,280.863z
			 M116.87,381.037c-21.768,0-40.336-13.956-47.226-33.391h43.748c4.037,6.182,8.726,12.4,14.103,18.705
			c4.145,4.86,8.687,9.748,13.548,14.687H116.87z M256,437.32c-57.702-49.173-100.165-81.4-118.418-114.012
			c-0.131-0.254-0.271-0.501-0.414-0.747c-24.698-45.049,1.587-96.857,46.288-96.857c41.555,0,55.887,48.357,56.46,50.355
			c2.01,7.223,8.579,12.251,16.076,12.251c7.498,0,14.067-4.968,16.076-12.19c0.59-2.059,14.921-50.416,56.477-50.416
			c32.147,0,55.849,26.902,55.849,61.682c0,12.315-3.314,23.779-9.561,35.175c-0.144,0.246-0.283,0.493-0.414,0.747
			C356.146,355.955,313.489,388.329,256,437.32z M395.13,381.037h-24.174c4.86-4.94,9.402-9.827,13.548-14.687
			c5.378-6.304,10.066-12.522,14.103-18.705h43.748C435.466,367.08,416.898,381.037,395.13,381.037z M428.522,314.254h-14.381
			c2.444-8.805,3.644-17.715,3.644-26.869c0-2.189-0.09-4.361-0.22-6.522h58.183C468.857,300.297,450.29,314.254,428.522,314.254z"
			/>
	</g>
</g>
<g>
	<g>
		<path d="M256,35.993c-66.626,0-116.87,28.71-116.87,66.783c0,38.073,50.244,66.783,116.87,66.783s116.87-28.71,116.87-66.783
			C372.87,64.703,322.626,35.993,256,35.993z M256,136.167c-50.958,0-83.478-19.777-83.478-33.391
			c0-13.615,32.52-33.391,83.478-33.391s83.478,19.777,83.478,33.391C339.478,116.39,306.958,136.167,256,136.167z"/>
	</g>
</g>
</svg>