<?xml version="1.0" encoding="iso-8859-1"?>
<!-- Uploaded to: SVG Repo, www.svgrepo.com, Generator: SVG Repo Mixer Tools -->
<svg fill="#000000" height="800px" width="800px" version="1.1" id="Layer_1" xmlns="http://www.w3.org/2000/svg" xmlns:xlink="http://www.w3.org/1999/xlink" 
	 viewBox="0 0 512 512" xml:space="preserve">
<g>
	<g>
		<path d="M461.913,66.783h-57.332C396.824,28.725,363.097,0,322.783,0C295.504,0,271.242,13.154,256,33.449
			C240.757,13.154,216.496,0,189.217,0c-40.313,0-74.042,28.725-81.799,66.783H50.087C22.469,66.783,0,89.252,0,116.87v33.391
			c0,21.766,13.959,40.323,33.391,47.215v264.437C33.391,489.531,55.86,512,83.478,512h345.043
			c27.618,0,50.087-22.469,50.087-50.087V197.476c19.433-6.892,33.391-25.45,33.391-47.215V116.87
			C512,89.252,489.531,66.783,461.913,66.783z M322.783,33.391c21.766,0,40.323,13.959,47.215,33.391h-94.431
			C282.459,47.35,301.017,33.391,322.783,33.391z M189.217,33.391c21.766,0,40.323,13.959,47.215,33.391h-94.431
			C148.894,47.35,167.452,33.391,189.217,33.391z M445.217,461.913c0,9.206-7.49,16.696-16.696,16.696H83.478
			c-9.206,0-16.696-7.49-16.696-16.696V200.348h378.435V461.913z M478.609,150.261c0,9.206-7.49,16.696-16.696,16.696H50.087
			c-9.206,0-16.696-7.49-16.696-16.696V116.87c0-9.206,7.49-16.696,16.696-16.696h411.826c9.206,0,16.696,7.49,16.696,16.696
			V150.261z"/>
	</g>
</g>
<g>
	<g>
		<path d="M359.738,257.069c-13.008-14.456-31.014-22.419-50.704-22.419c-20.965,0-39.233,9.256-53.033,26.821
			c-13.801-17.564-32.069-26.821-53.034-26.821c-19.689,0-37.695,7.962-50.703,22.419c-12.27,13.638-19.027,31.826-19.027,51.214
			c-0.001,41.804,31.825,67.606,75.876,103.317c10.852,8.797,23.154,18.769,36.023,29.799c3.127,2.679,6.995,4.019,10.866,4.019
			c3.87,0,7.739-1.34,10.866-4.019c12.87-11.03,25.169-21.002,36.021-29.799c44.05-35.711,75.877-61.513,75.877-103.317
			C378.765,288.895,372.008,270.707,359.738,257.069z M281.858,385.662c-7.947,6.442-16.661,13.507-25.858,21.193
			c-9.198-7.687-17.912-14.751-25.859-21.193c-42.894-34.775-63.514-52.59-63.514-77.38c0-19.507,12.735-40.241,36.339-40.241
			c26.86,0,36.527,31.8,36.978,33.336c2.042,7.17,8.595,12.122,16.057,12.122c7.487,0,14.059-4.984,16.077-12.193
			c0.094-0.333,9.63-33.264,36.956-33.264c23.603,0,36.339,20.734,36.339,40.241C345.372,333.07,324.754,350.886,281.858,385.662z"
			/>
	</g>
</g>
</svg>